<?xml version="1.0" encoding="UTF-8" standalone="no"?>
<!DOCTYPE svg PUBLIC "-//W3C//DTD SVG 1.1//EN"
 "http://www.w3.org/Graphics/SVG/1.1/DTD/svg11.dtd">
<!-- Generated by graphviz version 2.40.1 (0)
 -->
<!-- Title: G Pages: 1 -->
<svg width="1726pt" height="476pt"
 viewBox="0.00 0.00 1726.00 476.00" xmlns="http://www.w3.org/2000/svg" xmlns:xlink="http://www.w3.org/1999/xlink">
<g id="graph0" class="graph" transform="scale(1 1) rotate(0) translate(4 472)">
<title>G</title>
<polygon fill="#ffffff" stroke="transparent" points="-4,4 -4,-472 1722,-472 1722,4 -4,4"/>
<!-- /nix/store/rfs7420034mjxhnwvlyg5cmhddn3q394&#45;nginx&#45;1.14.2 -->
<g id="node1" class="node">
<title>/nix/store/rfs7420034mjxhnwvlyg5cmhddn3q394&#45;nginx&#45;1.14.2</title>
<polygon fill="#ff0000" stroke="#000000" points="544,-36 428,-36 428,0 544,0 544,-36"/>
<text text-anchor="middle" x="486" y="-14.3" font-family="Times-Roman" font-size="14.00" fill="#000000">nginx&#45;1.14.2</text>
</g>
<!-- /nix/store/0j1sc30kjf9b3j7j0sp68jns2v34apr0&#45;pcre&#45;8.42 -->
<g id="node2" class="node">
<title>/nix/store/0j1sc30kjf9b3j7j0sp68jns2v34apr0&#45;pcre&#45;8.42</title>
<polygon fill="#ff0000" stroke="#000000" points="119.5,-180 28.5,-180 28.5,-144 119.5,-144 119.5,-180"/>
<text text-anchor="middle" x="74" y="-158.3" font-family="Times-Roman" font-size="14.00" fill="#000000">pcre&#45;8.42</text>
</g>
<!-- /nix/store/0j1sc30kjf9b3j7j0sp68jns2v34apr0&#45;pcre&#45;8.42&#45;&gt;/nix/store/rfs7420034mjxhnwvlyg5cmhddn3q394&#45;nginx&#45;1.14.2 -->
<g id="edge1" class="edge">
<title>/nix/store/0j1sc30kjf9b3j7j0sp68jns2v34apr0&#45;pcre&#45;8.42&#45;&gt;/nix/store/rfs7420034mjxhnwvlyg5cmhddn3q394&#45;nginx&#45;1.14.2</title>
<path fill="none" stroke="#000000" d="M101.8232,-143.8737C134.082,-123.615 189.4394,-91.1501 241,-72 298.8711,-50.5061 367.7616,-36.2598 417.7302,-27.8244"/>
<polygon fill="#000000" stroke="#000000" points="418.4833,-31.2475 427.7785,-26.1632 417.3415,-24.3412 418.4833,-31.2475"/>
</g>
<!-- /nix/store/4w2zbpv9ihl36kbpp6w5d1x33gp5ivfh&#45;source -->
<g id="node3" class="node">
<title>/nix/store/4w2zbpv9ihl36kbpp6w5d1x33gp5ivfh&#45;source</title>
<polygon fill="#ff0000" stroke="#000000" points="892,-108 826,-108 826,-72 892,-72 892,-108"/>
<text text-anchor="middle" x="859" y="-86.3" font-family="Times-Roman" font-size="14.00" fill="#000000">source</text>
</g>
<!-- /nix/store/4w2zbpv9ihl36kbpp6w5d1x33gp5ivfh&#45;source&#45;&gt;/nix/store/rfs7420034mjxhnwvlyg5cmhddn3q394&#45;nginx&#45;1.14.2 -->
<g id="edge2" class="edge">
<title>/nix/store/4w2zbpv9ihl36kbpp6w5d1x33gp5ivfh&#45;source&#45;&gt;/nix/store/rfs7420034mjxhnwvlyg5cmhddn3q394&#45;nginx&#45;1.14.2</title>
<path fill="none" stroke="#ff0000" d="M825.7982,-74.9053C822.855,-73.8318 819.8944,-72.8427 817,-72 728.066,-46.1082 621.8429,-31.5429 554.1612,-24.2256"/>
<polygon fill="#ff0000" stroke="#ff0000" points="554.3631,-20.7275 544.0502,-23.1555 553.6263,-27.6887 554.3631,-20.7275"/>
</g>
<!-- /nix/store/681354n3k44r8z90m35hm8945vsp95h1&#45;glibc&#45;2.27 -->
<g id="node4" class="node">
<title>/nix/store/681354n3k44r8z90m35hm8945vsp95h1&#45;glibc&#45;2.27</title>
<polygon fill="#ff0000" stroke="#000000" points="765.5,-468 666.5,-468 666.5,-432 765.5,-432 765.5,-468"/>
<text text-anchor="middle" x="716" y="-446.3" font-family="Times-Roman" font-size="14.00" fill="#000000">glibc&#45;2.27</text>
</g>
<!-- /nix/store/681354n3k44r8z90m35hm8945vsp95h1&#45;glibc&#45;2.27&#45;&gt;/nix/store/rfs7420034mjxhnwvlyg5cmhddn3q394&#45;nginx&#45;1.14.2 -->
<g id="edge3" class="edge">
<title>/nix/store/681354n3k44r8z90m35hm8945vsp95h1&#45;glibc&#45;2.27&#45;&gt;/nix/store/rfs7420034mjxhnwvlyg5cmhddn3q394&#45;nginx&#45;1.14.2</title>
<path fill="none" stroke="#00ff00" d="M666.1238,-446.6007C555.9095,-438.7788 294.6257,-418.4454 209,-396 111.17,-370.3554 0,-407.1353 0,-306 0,-306 0,-306 0,-162 0,-75.912 283.876,-37.3013 417.7128,-23.8817"/>
<polygon fill="#00ff00" stroke="#00ff00" points="418.2504,-27.3458 427.8598,-22.8838 417.5652,-20.3794 418.2504,-27.3458"/>
</g>
<!-- /nix/store/681354n3k44r8z90m35hm8945vsp95h1&#45;glibc&#45;2.27&#45;&gt;/nix/store/0j1sc30kjf9b3j7j0sp68jns2v34apr0&#45;pcre&#45;8.42 -->
<g id="edge13" class="edge">
<title>/nix/store/681354n3k44r8z90m35hm8945vsp95h1&#45;glibc&#45;2.27&#45;&gt;/nix/store/0j1sc30kjf9b3j7j0sp68jns2v34apr0&#45;pcre&#45;8.42</title>
<path fill="none" stroke="#000000" d="M666.2188,-448.8339C562.8321,-445.6582 328.7617,-434.33 260,-396 172.9154,-347.4563 111.7843,-239.9859 86.6978,-189.3727"/>
<polygon fill="#000000" stroke="#000000" points="89.8197,-187.7891 82.2993,-180.3263 83.5244,-190.85 89.8197,-187.7891"/>
</g>
<!-- /nix/store/6f30am1kkhxck6lr6xyn8g324808x8rs&#45;openssl&#45;1.1.1b -->
<g id="node5" class="node">
<title>/nix/store/6f30am1kkhxck6lr6xyn8g324808x8rs&#45;openssl&#45;1.1.1b</title>
<polygon fill="#ff0000" stroke="#000000" points="270,-180 138,-180 138,-144 270,-144 270,-180"/>
<text text-anchor="middle" x="204" y="-158.3" font-family="Times-Roman" font-size="14.00" fill="#000000">openssl&#45;1.1.1b</text>
</g>
<!-- /nix/store/681354n3k44r8z90m35hm8945vsp95h1&#45;glibc&#45;2.27&#45;&gt;/nix/store/6f30am1kkhxck6lr6xyn8g324808x8rs&#45;openssl&#45;1.1.1b -->
<g id="edge14" class="edge">
<title>/nix/store/681354n3k44r8z90m35hm8945vsp95h1&#45;glibc&#45;2.27&#45;&gt;/nix/store/6f30am1kkhxck6lr6xyn8g324808x8rs&#45;openssl&#45;1.1.1b</title>
<path fill="none" stroke="#ff0000" d="M666.396,-445.839C577.5916,-437.9142 395.1998,-419.3448 336,-396 284.0406,-375.5104 263.0899,-371.0553 233,-324 206.7489,-282.948 202.6037,-224.6966 202.7615,-190.3807"/>
<polygon fill="#ff0000" stroke="#ff0000" points="206.2652,-190.1923 202.9413,-180.1323 199.2663,-190.0694 206.2652,-190.1923"/>
</g>
<!-- /nix/store/96g9082ys7fgwq2w9pqym7gvwdc7ny08&#45;expat&#45;2.2.6 -->
<g id="node6" class="node">
<title>/nix/store/96g9082ys7fgwq2w9pqym7gvwdc7ny08&#45;expat&#45;2.2.6</title>
<polygon fill="#ff0000" stroke="#000000" points="681.5,-252 574.5,-252 574.5,-216 681.5,-216 681.5,-252"/>
<text text-anchor="middle" x="628" y="-230.3" font-family="Times-Roman" font-size="14.00" fill="#000000">expat&#45;2.2.6</text>
</g>
<!-- /nix/store/681354n3k44r8z90m35hm8945vsp95h1&#45;glibc&#45;2.27&#45;&gt;/nix/store/96g9082ys7fgwq2w9pqym7gvwdc7ny08&#45;expat&#45;2.2.6 -->
<g id="edge15" class="edge">
<title>/nix/store/681354n3k44r8z90m35hm8945vsp95h1&#45;glibc&#45;2.27&#45;&gt;/nix/store/96g9082ys7fgwq2w9pqym7gvwdc7ny08&#45;expat&#45;2.2.6</title>
<path fill="none" stroke="#00ff00" d="M696.6204,-431.5729C687.3531,-421.7957 676.8194,-409.111 670,-396 647.3165,-352.3887 636.271,-295.6635 631.3882,-262.207"/>
<polygon fill="#00ff00" stroke="#00ff00" points="634.8429,-261.6378 630.0125,-252.2082 627.9083,-262.592 634.8429,-261.6378"/>
</g>
<!-- /nix/store/g4jmmvcz5gsgpsdjib16l3c603vdpw0v&#45;gd&#45;2.2.5 -->
<g id="node8" class="node">
<title>/nix/store/g4jmmvcz5gsgpsdjib16l3c603vdpw0v&#45;gd&#45;2.2.5</title>
<polygon fill="#ff0000" stroke="#000000" points="807.5,-108 724.5,-108 724.5,-72 807.5,-72 807.5,-108"/>
<text text-anchor="middle" x="766" y="-86.3" font-family="Times-Roman" font-size="14.00" fill="#000000">gd&#45;2.2.5</text>
</g>
<!-- /nix/store/681354n3k44r8z90m35hm8945vsp95h1&#45;glibc&#45;2.27&#45;&gt;/nix/store/g4jmmvcz5gsgpsdjib16l3c603vdpw0v&#45;gd&#45;2.2.5 -->
<g id="edge17" class="edge">
<title>/nix/store/681354n3k44r8z90m35hm8945vsp95h1&#45;glibc&#45;2.27&#45;&gt;/nix/store/g4jmmvcz5gsgpsdjib16l3c603vdpw0v&#45;gd&#45;2.2.5</title>
<path fill="none" stroke="#ff00ff" d="M765.7358,-448.3058C913.0091,-443.0034 1345.1673,-425.3102 1483,-396 1592.3959,-372.7369 1718,-417.842 1718,-306 1718,-306 1718,-306 1718,-234 1718,-128.3568 1601.0839,-167.1129 1498,-144 1205.5748,-78.4341 1116.2851,-165.0545 818.0029,-107.8124"/>
<polygon fill="#ff00ff" stroke="#ff00ff" points="818.244,-104.2932 807.7577,-105.8058 816.8985,-111.1626 818.244,-104.2932"/>
</g>
<!-- /nix/store/iiymx8j7nlar3gc23lfkcscvr61fng8s&#45;zlib&#45;1.2.11 -->
<g id="node9" class="node">
<title>/nix/store/iiymx8j7nlar3gc23lfkcscvr61fng8s&#45;zlib&#45;1.2.11</title>
<polygon fill="#ff0000" stroke="#000000" points="599.5,-396 492.5,-396 492.5,-360 599.5,-360 599.5,-396"/>
<text text-anchor="middle" x="546" y="-374.3" font-family="Times-Roman" font-size="14.00" fill="#000000">zlib&#45;1.2.11</text>
</g>
<!-- /nix/store/681354n3k44r8z90m35hm8945vsp95h1&#45;glibc&#45;2.27&#45;&gt;/nix/store/iiymx8j7nlar3gc23lfkcscvr61fng8s&#45;zlib&#45;1.2.11 -->
<g id="edge24" class="edge">
<title>/nix/store/681354n3k44r8z90m35hm8945vsp95h1&#45;glibc&#45;2.27&#45;&gt;/nix/store/iiymx8j7nlar3gc23lfkcscvr61fng8s&#45;zlib&#45;1.2.11</title>
<path fill="none" stroke="#deb887" d="M673.1018,-431.8314C650.2643,-422.159 622.002,-410.1891 597.9313,-399.9944"/>
<polygon fill="#deb887" stroke="#deb887" points="599.1629,-396.7151 588.5897,-396.038 596.4329,-403.1608 599.1629,-396.7151"/>
</g>
<!-- /nix/store/ikpw35l9k1irmkiai8av6p0q3kbw9zqr&#45;libxslt&#45;1.1.33 -->
<g id="node10" class="node">
<title>/nix/store/ikpw35l9k1irmkiai8av6p0q3kbw9zqr&#45;libxslt&#45;1.1.33</title>
<polygon fill="#ff0000" stroke="#000000" points="442,-252 310,-252 310,-216 442,-216 442,-252"/>
<text text-anchor="middle" x="376" y="-230.3" font-family="Times-Roman" font-size="14.00" fill="#000000">libxslt&#45;1.1.33</text>
</g>
<!-- /nix/store/681354n3k44r8z90m35hm8945vsp95h1&#45;glibc&#45;2.27&#45;&gt;/nix/store/ikpw35l9k1irmkiai8av6p0q3kbw9zqr&#45;libxslt&#45;1.1.33 -->
<g id="edge25" class="edge">
<title>/nix/store/681354n3k44r8z90m35hm8945vsp95h1&#45;glibc&#45;2.27&#45;&gt;/nix/store/ikpw35l9k1irmkiai8av6p0q3kbw9zqr&#45;libxslt&#45;1.1.33</title>
<path fill="none" stroke="#000000" d="M666.3959,-445.3114C598.9368,-438.0478 482.885,-422.1229 450,-396 407.581,-362.3036 388.5633,-298.8503 380.7844,-262.1543"/>
<polygon fill="#000000" stroke="#000000" points="384.174,-261.2531 378.7976,-252.1238 377.3074,-262.6133 384.174,-261.2531"/>
</g>
<!-- /nix/store/saymap34yysscls09lynpjx42vs8nk75&#45;libxml2&#45;2.9.9 -->
<g id="node12" class="node">
<title>/nix/store/saymap34yysscls09lynpjx42vs8nk75&#45;libxml2&#45;2.9.9</title>
<polygon fill="#ff0000" stroke="#000000" points="366,-324 242,-324 242,-288 366,-288 366,-324"/>
<text text-anchor="middle" x="304" y="-302.3" font-family="Times-Roman" font-size="14.00" fill="#000000">libxml2&#45;2.9.9</text>
</g>
<!-- /nix/store/681354n3k44r8z90m35hm8945vsp95h1&#45;glibc&#45;2.27&#45;&gt;/nix/store/saymap34yysscls09lynpjx42vs8nk75&#45;libxml2&#45;2.9.9 -->
<g id="edge41" class="edge">
<title>/nix/store/681354n3k44r8z90m35hm8945vsp95h1&#45;glibc&#45;2.27&#45;&gt;/nix/store/saymap34yysscls09lynpjx42vs8nk75&#45;libxml2&#45;2.9.9</title>
<path fill="none" stroke="#ff00ff" d="M666.411,-446.2699C585.2087,-439.4662 428.0914,-423.1817 380,-396 353.7902,-381.186 332.5922,-353.6476 319.3091,-332.9182"/>
<polygon fill="#ff00ff" stroke="#ff00ff" points="322.1737,-330.8955 313.9416,-324.226 316.2178,-334.5735 322.1737,-330.8955"/>
</g>
<!-- /nix/store/wla43lgi0v7p9gwdq1vw9njfqb1b251v&#45;geoip&#45;1.6.12 -->
<g id="node13" class="node">
<title>/nix/store/wla43lgi0v7p9gwdq1vw9njfqb1b251v&#45;geoip&#45;1.6.12</title>
<polygon fill="#ff0000" stroke="#000000" points="480,-180 364,-180 364,-144 480,-144 480,-180"/>
<text text-anchor="middle" x="422" y="-158.3" font-family="Times-Roman" font-size="14.00" fill="#000000">geoip&#45;1.6.12</text>
</g>
<!-- /nix/store/681354n3k44r8z90m35hm8945vsp95h1&#45;glibc&#45;2.27&#45;&gt;/nix/store/wla43lgi0v7p9gwdq1vw9njfqb1b251v&#45;geoip&#45;1.6.12 -->
<g id="edge49" class="edge">
<title>/nix/store/681354n3k44r8z90m35hm8945vsp95h1&#45;glibc&#45;2.27&#45;&gt;/nix/store/wla43lgi0v7p9gwdq1vw9njfqb1b251v&#45;geoip&#45;1.6.12</title>
<path fill="none" stroke="#000000" d="M666.4668,-444.8973C605.7259,-437.5954 507.7673,-422.0846 483,-396 427.0517,-337.0758 477.667,-292.7538 451,-216 447.8536,-206.9438 443.33,-197.5738 438.7883,-189.2324"/>
<polygon fill="#000000" stroke="#000000" points="441.7092,-187.2883 433.7254,-180.3235 435.6233,-190.7469 441.7092,-187.2883"/>
</g>
<!-- /nix/store/0yackjnr620wqdsrf6hz5r8dfb8l8l7l&#45;libjpeg&#45;turbo&#45;2.0.1 -->
<g id="node14" class="node">
<title>/nix/store/0yackjnr620wqdsrf6hz5r8dfb8l8l7l&#45;libjpeg&#45;turbo&#45;2.0.1</title>
<polygon fill="#ff0000" stroke="#000000" points="1237.5,-396 1064.5,-396 1064.5,-360 1237.5,-360 1237.5,-396"/>
<text text-anchor="middle" x="1151" y="-374.3" font-family="Times-Roman" font-size="14.00" fill="#000000">libjpeg&#45;turbo&#45;2.0.1</text>
</g>
<!-- /nix/store/681354n3k44r8z90m35hm8945vsp95h1&#45;glibc&#45;2.27&#45;&gt;/nix/store/0yackjnr620wqdsrf6hz5r8dfb8l8l7l&#45;libjpeg&#45;turbo&#45;2.0.1 -->
<g id="edge23" class="edge">
<title>/nix/store/681354n3k44r8z90m35hm8945vsp95h1&#45;glibc&#45;2.27&#45;&gt;/nix/store/0yackjnr620wqdsrf6hz5r8dfb8l8l7l&#45;libjpeg&#45;turbo&#45;2.0.1</title>
<path fill="none" stroke="#ff00ff" d="M765.5565,-442.2428C830.8106,-431.9701 949.0938,-413.1476 1050,-396 1051.3087,-395.7776 1052.6268,-395.5529 1053.9527,-395.3262"/>
<polygon fill="#ff00ff" stroke="#ff00ff" points="1054.9807,-398.7008 1064.2419,-393.5548 1053.793,-391.8023 1054.9807,-398.7008"/>
</g>
<!-- /nix/store/m0skfvwadjx49qzlrbsmsql74amz69x1&#45;libpng&#45;apng&#45;1.6.36 -->
<g id="node15" class="node">
<title>/nix/store/m0skfvwadjx49qzlrbsmsql74amz69x1&#45;libpng&#45;apng&#45;1.6.36</title>
<polygon fill="#ff0000" stroke="#000000" points="1011.5,-324 846.5,-324 846.5,-288 1011.5,-288 1011.5,-324"/>
<text text-anchor="middle" x="929" y="-302.3" font-family="Times-Roman" font-size="14.00" fill="#000000">libpng&#45;apng&#45;1.6.36</text>
</g>
<!-- /nix/store/681354n3k44r8z90m35hm8945vsp95h1&#45;glibc&#45;2.27&#45;&gt;/nix/store/m0skfvwadjx49qzlrbsmsql74amz69x1&#45;libpng&#45;apng&#45;1.6.36 -->
<g id="edge28" class="edge">
<title>/nix/store/681354n3k44r8z90m35hm8945vsp95h1&#45;glibc&#45;2.27&#45;&gt;/nix/store/m0skfvwadjx49qzlrbsmsql74amz69x1&#45;libpng&#45;apng&#45;1.6.36</title>
<path fill="none" stroke="#0000ff" d="M723.0975,-431.8823C731.9067,-411.6315 748.7852,-379.1739 773,-360 791.5791,-345.2886 814.4313,-334.447 836.8579,-326.5102"/>
<polygon fill="#0000ff" stroke="#0000ff" points="838.0714,-329.7947 846.4295,-323.2837 835.8354,-323.1614 838.0714,-329.7947"/>
</g>
<!-- /nix/store/mhrzh65clgrapcr225k1lf1m5v8hp0bj&#45;fontconfig&#45;2.12.6&#45;lib -->
<g id="node16" class="node">
<title>/nix/store/mhrzh65clgrapcr225k1lf1m5v8hp0bj&#45;fontconfig&#45;2.12.6&#45;lib</title>
<polygon fill="#ff0000" stroke="#000000" points="1489,-180 1299,-180 1299,-144 1489,-144 1489,-180"/>
<text text-anchor="middle" x="1394" y="-158.3" font-family="Times-Roman" font-size="14.00" fill="#000000">fontconfig&#45;2.12.6&#45;lib</text>
</g>
<!-- /nix/store/681354n3k44r8z90m35hm8945vsp95h1&#45;glibc&#45;2.27&#45;&gt;/nix/store/mhrzh65clgrapcr225k1lf1m5v8hp0bj&#45;fontconfig&#45;2.12.6&#45;lib -->
<g id="edge30" class="edge">
<title>/nix/store/681354n3k44r8z90m35hm8945vsp95h1&#45;glibc&#45;2.27&#45;&gt;/nix/store/mhrzh65clgrapcr225k1lf1m5v8hp0bj&#45;fontconfig&#45;2.12.6&#45;lib</title>
<path fill="none" stroke="#deb887" d="M765.6094,-447.2867C952.1405,-436.5707 1603.7482,-394.3096 1661,-324 1717.5159,-254.5942 1590.1181,-207.3366 1492.4978,-182.5237"/>
<polygon fill="#deb887" stroke="#deb887" points="1493.1035,-179.0676 1482.554,-180.0466 1491.4114,-185.8601 1493.1035,-179.0676"/>
</g>
<!-- /nix/store/rakz2jjx50gk79p1ax0vxppl9y07bl9h&#45;freetype&#45;2.9.1 -->
<g id="node17" class="node">
<title>/nix/store/rakz2jjx50gk79p1ax0vxppl9y07bl9h&#45;freetype&#45;2.9.1</title>
<polygon fill="#ff0000" stroke="#000000" points="832,-252 700,-252 700,-216 832,-216 832,-252"/>
<text text-anchor="middle" x="766" y="-230.3" font-family="Times-Roman" font-size="14.00" fill="#000000">freetype&#45;2.9.1</text>
</g>
<!-- /nix/store/681354n3k44r8z90m35hm8945vsp95h1&#45;glibc&#45;2.27&#45;&gt;/nix/store/rakz2jjx50gk79p1ax0vxppl9y07bl9h&#45;freetype&#45;2.9.1 -->
<g id="edge36" class="edge">
<title>/nix/store/681354n3k44r8z90m35hm8945vsp95h1&#45;glibc&#45;2.27&#45;&gt;/nix/store/rakz2jjx50gk79p1ax0vxppl9y07bl9h&#45;freetype&#45;2.9.1</title>
<path fill="none" stroke="#deb887" d="M703.9742,-431.8142C684.9475,-400.5472 652.6342,-335.3967 679,-288 686.0918,-275.2514 697.5767,-265.1272 709.9096,-257.255"/>
<polygon fill="#deb887" stroke="#deb887" points="711.7077,-260.2579 718.5397,-252.1601 708.149,-254.23 711.7077,-260.2579"/>
</g>
<!-- /nix/store/v7jpd3j8hxq5xfais7hscxrcbx44l67m&#45;libwebp&#45;1.0.2 -->
<g id="node18" class="node">
<title>/nix/store/v7jpd3j8hxq5xfais7hscxrcbx44l67m&#45;libwebp&#45;1.0.2</title>
<polygon fill="#ff0000" stroke="#000000" points="1328,-252 1204,-252 1204,-216 1328,-216 1328,-252"/>
<text text-anchor="middle" x="1266" y="-230.3" font-family="Times-Roman" font-size="14.00" fill="#000000">libwebp&#45;1.0.2</text>
</g>
<!-- /nix/store/681354n3k44r8z90m35hm8945vsp95h1&#45;glibc&#45;2.27&#45;&gt;/nix/store/v7jpd3j8hxq5xfais7hscxrcbx44l67m&#45;libwebp&#45;1.0.2 -->
<g id="edge45" class="edge">
<title>/nix/store/681354n3k44r8z90m35hm8945vsp95h1&#45;glibc&#45;2.27&#45;&gt;/nix/store/v7jpd3j8hxq5xfais7hscxrcbx44l67m&#45;libwebp&#45;1.0.2</title>
<path fill="none" stroke="#00ff00" d="M765.8774,-448.4244C891.4502,-443.9748 1213.0795,-429.402 1247,-396 1282.2599,-361.2791 1278.2351,-298.4739 1272.1285,-262.1047"/>
<polygon fill="#00ff00" stroke="#00ff00" points="1275.5502,-261.3594 1270.2951,-252.1597 1268.6662,-262.6286 1275.5502,-261.3594"/>
</g>
<!-- /nix/store/pz7k70b5xzbccsxh2wi14k2k85fhhh3i&#45;bzip2&#45;1.0.6.0.1 -->
<g id="node21" class="node">
<title>/nix/store/pz7k70b5xzbccsxh2wi14k2k85fhhh3i&#45;bzip2&#45;1.0.6.0.1</title>
<polygon fill="#ff0000" stroke="#000000" points="828,-324 688,-324 688,-288 828,-288 828,-324"/>
<text text-anchor="middle" x="758" y="-302.3" font-family="Times-Roman" font-size="14.00" fill="#000000">bzip2&#45;1.0.6.0.1</text>
</g>
<!-- /nix/store/681354n3k44r8z90m35hm8945vsp95h1&#45;glibc&#45;2.27&#45;&gt;/nix/store/pz7k70b5xzbccsxh2wi14k2k85fhhh3i&#45;bzip2&#45;1.0.6.0.1 -->
<g id="edge40" class="edge">
<title>/nix/store/681354n3k44r8z90m35hm8945vsp95h1&#45;glibc&#45;2.27&#45;&gt;/nix/store/pz7k70b5xzbccsxh2wi14k2k85fhhh3i&#45;bzip2&#45;1.0.6.0.1</title>
<path fill="none" stroke="#0000ff" d="M720.4602,-431.9794C725.0542,-413.7446 732.5722,-384.7845 740,-360 742.5413,-351.5204 745.508,-342.3633 748.2913,-334.0411"/>
<polygon fill="#0000ff" stroke="#0000ff" points="751.6619,-334.9998 751.5544,-324.4055 745.0317,-332.7545 751.6619,-334.9998"/>
</g>
<!-- /nix/store/4592pfsk5l7arlzhbg1cs2b06fxfy9hv&#45;giflib&#45;5.1.4 -->
<g id="node22" class="node">
<title>/nix/store/4592pfsk5l7arlzhbg1cs2b06fxfy9hv&#45;giflib&#45;5.1.4</title>
<polygon fill="#ff0000" stroke="#000000" points="1410,-324 1294,-324 1294,-288 1410,-288 1410,-324"/>
<text text-anchor="middle" x="1352" y="-302.3" font-family="Times-Roman" font-size="14.00" fill="#000000">giflib&#45;5.1.4</text>
</g>
<!-- /nix/store/681354n3k44r8z90m35hm8945vsp95h1&#45;glibc&#45;2.27&#45;&gt;/nix/store/4592pfsk5l7arlzhbg1cs2b06fxfy9hv&#45;giflib&#45;5.1.4 -->
<g id="edge48" class="edge">
<title>/nix/store/681354n3k44r8z90m35hm8945vsp95h1&#45;glibc&#45;2.27&#45;&gt;/nix/store/4592pfsk5l7arlzhbg1cs2b06fxfy9hv&#45;giflib&#45;5.1.4</title>
<path fill="none" stroke="#deb887" d="M765.6256,-447.4586C894.9263,-440.527 1235.2788,-420.1854 1280,-396 1306.0643,-381.9044 1326.0667,-354.0008 1338.2987,-332.9806"/>
<polygon fill="#deb887" stroke="#deb887" points="1341.3994,-334.6064 1343.2131,-324.168 1335.2858,-331.1971 1341.3994,-334.6064"/>
</g>
<!-- /nix/store/xrkn67vbpkmmp89mg9f6rkp8rzzfsmql&#45;libtiff&#45;4.0.10 -->
<g id="node23" class="node">
<title>/nix/store/xrkn67vbpkmmp89mg9f6rkp8rzzfsmql&#45;libtiff&#45;4.0.10</title>
<polygon fill="#ff0000" stroke="#000000" points="1162,-324 1030,-324 1030,-288 1162,-288 1162,-324"/>
<text text-anchor="middle" x="1096" y="-302.3" font-family="Times-Roman" font-size="14.00" fill="#000000">libtiff&#45;4.0.10</text>
</g>
<!-- /nix/store/681354n3k44r8z90m35hm8945vsp95h1&#45;glibc&#45;2.27&#45;&gt;/nix/store/xrkn67vbpkmmp89mg9f6rkp8rzzfsmql&#45;libtiff&#45;4.0.10 -->
<g id="edge51" class="edge">
<title>/nix/store/681354n3k44r8z90m35hm8945vsp95h1&#45;glibc&#45;2.27&#45;&gt;/nix/store/xrkn67vbpkmmp89mg9f6rkp8rzzfsmql&#45;libtiff&#45;4.0.10</title>
<path fill="none" stroke="#00ff00" d="M765.7558,-445.0919C839.8034,-437.1197 974.8131,-419.8171 1017,-396 1031.2517,-387.954 1057.8529,-355.7653 1076.2238,-332.172"/>
<polygon fill="#00ff00" stroke="#00ff00" points="1079.0071,-334.2942 1082.3448,-324.2389 1073.465,-330.018 1079.0071,-334.2942"/>
</g>
<!-- /nix/store/hlnxw4k6931bachvg5sv0cyaissimswb&#45;gcc&#45;7.4.0&#45;lib -->
<g id="node24" class="node">
<title>/nix/store/hlnxw4k6931bachvg5sv0cyaissimswb&#45;gcc&#45;7.4.0&#45;lib</title>
<polygon fill="#ff0000" stroke="#000000" points="906,-396 782,-396 782,-360 906,-360 906,-396"/>
<text text-anchor="middle" x="844" y="-374.3" font-family="Times-Roman" font-size="14.00" fill="#000000">gcc&#45;7.4.0&#45;lib</text>
</g>
<!-- /nix/store/681354n3k44r8z90m35hm8945vsp95h1&#45;glibc&#45;2.27&#45;&gt;/nix/store/hlnxw4k6931bachvg5sv0cyaissimswb&#45;gcc&#45;7.4.0&#45;lib -->
<g id="edge55" class="edge">
<title>/nix/store/681354n3k44r8z90m35hm8945vsp95h1&#45;glibc&#45;2.27&#45;&gt;/nix/store/hlnxw4k6931bachvg5sv0cyaissimswb&#45;gcc&#45;7.4.0&#45;lib</title>
<path fill="none" stroke="#000000" d="M748.2998,-431.8314C764.8234,-422.5368 785.1186,-411.1208 802.7607,-401.1971"/>
<polygon fill="#000000" stroke="#000000" points="804.7107,-404.116 811.7105,-396.1628 801.2788,-398.015 804.7107,-404.116"/>
</g>
<!-- /nix/store/mibh7947iwgf5yiqc7njn0igfzlxzdf1&#45;xz&#45;5.2.4 -->
<g id="node25" class="node">
<title>/nix/store/mibh7947iwgf5yiqc7njn0igfzlxzdf1&#45;xz&#45;5.2.4</title>
<polygon fill="#ff0000" stroke="#000000" points="1007.5,-396 924.5,-396 924.5,-360 1007.5,-360 1007.5,-396"/>
<text text-anchor="middle" x="966" y="-374.3" font-family="Times-Roman" font-size="14.00" fill="#000000">xz&#45;5.2.4</text>
</g>
<!-- /nix/store/681354n3k44r8z90m35hm8945vsp95h1&#45;glibc&#45;2.27&#45;&gt;/nix/store/mibh7947iwgf5yiqc7njn0igfzlxzdf1&#45;xz&#45;5.2.4 -->
<g id="edge56" class="edge">
<title>/nix/store/681354n3k44r8z90m35hm8945vsp95h1&#45;glibc&#45;2.27&#45;&gt;/nix/store/mibh7947iwgf5yiqc7njn0igfzlxzdf1&#45;xz&#45;5.2.4</title>
<path fill="none" stroke="#ff0000" d="M765.7729,-437.5891C803.9953,-427.8104 858.2577,-413.3951 914.5487,-396.0315"/>
<polygon fill="#ff0000" stroke="#ff0000" points="915.8258,-399.2998 924.3358,-392.9887 913.7476,-392.6154 915.8258,-399.2998"/>
</g>
<!-- /nix/store/6f30am1kkhxck6lr6xyn8g324808x8rs&#45;openssl&#45;1.1.1b&#45;&gt;/nix/store/rfs7420034mjxhnwvlyg5cmhddn3q394&#45;nginx&#45;1.14.2 -->
<g id="edge4" class="edge">
<title>/nix/store/6f30am1kkhxck6lr6xyn8g324808x8rs&#45;openssl&#45;1.1.1b&#45;&gt;/nix/store/rfs7420034mjxhnwvlyg5cmhddn3q394&#45;nginx&#45;1.14.2</title>
<path fill="none" stroke="#0000ff" d="M215.2637,-143.9432C228.9959,-123.4358 254.1076,-90.4378 284,-72 324.5309,-47.0002 376.5661,-33.4421 417.6722,-26.1642"/>
<polygon fill="#0000ff" stroke="#0000ff" points="418.3259,-29.6034 427.6046,-24.4891 417.1618,-22.7009 418.3259,-29.6034"/>
</g>
<!-- /nix/store/96g9082ys7fgwq2w9pqym7gvwdc7ny08&#45;expat&#45;2.2.6&#45;&gt;/nix/store/rfs7420034mjxhnwvlyg5cmhddn3q394&#45;nginx&#45;1.14.2 -->
<g id="edge5" class="edge">
<title>/nix/store/96g9082ys7fgwq2w9pqym7gvwdc7ny08&#45;expat&#45;2.2.6&#45;&gt;/nix/store/rfs7420034mjxhnwvlyg5cmhddn3q394&#45;nginx&#45;1.14.2</title>
<path fill="none" stroke="#ff00ff" d="M616.2861,-215.9875C596.7985,-186.0464 556.4537,-124.1649 522,-72 516.193,-63.2079 509.8247,-53.6334 504.08,-45.0214"/>
<polygon fill="#ff00ff" stroke="#ff00ff" points="506.8328,-42.8411 498.3689,-36.4683 501.0113,-46.7283 506.8328,-42.8411"/>
</g>
<!-- /nix/store/96g9082ys7fgwq2w9pqym7gvwdc7ny08&#45;expat&#45;2.2.6&#45;&gt;/nix/store/mhrzh65clgrapcr225k1lf1m5v8hp0bj&#45;fontconfig&#45;2.12.6&#45;lib -->
<g id="edge32" class="edge">
<title>/nix/store/96g9082ys7fgwq2w9pqym7gvwdc7ny08&#45;expat&#45;2.2.6&#45;&gt;/nix/store/mhrzh65clgrapcr225k1lf1m5v8hp0bj&#45;fontconfig&#45;2.12.6&#45;lib</title>
<path fill="none" stroke="#ff0000" d="M681.7884,-217.8601C684.8908,-217.1703 687.9769,-216.5422 691,-216 802.7268,-195.9597 1121.5331,-176.6148 1288.7394,-167.4756"/>
<polygon fill="#ff0000" stroke="#ff0000" points="1288.9989,-170.9668 1298.7938,-166.9284 1288.6184,-163.9771 1288.9989,-170.9668"/>
</g>
<!-- /nix/store/c1d0qwva4ncx3473pl336q3fbjs5qslr&#45;source -->
<g id="node7" class="node">
<title>/nix/store/c1d0qwva4ncx3473pl336q3fbjs5qslr&#45;source</title>
<polygon fill="#ff0000" stroke="#000000" points="976,-108 910,-108 910,-72 976,-72 976,-108"/>
<text text-anchor="middle" x="943" y="-86.3" font-family="Times-Roman" font-size="14.00" fill="#000000">source</text>
</g>
<!-- /nix/store/c1d0qwva4ncx3473pl336q3fbjs5qslr&#45;source&#45;&gt;/nix/store/rfs7420034mjxhnwvlyg5cmhddn3q394&#45;nginx&#45;1.14.2 -->
<g id="edge6" class="edge">
<title>/nix/store/c1d0qwva4ncx3473pl336q3fbjs5qslr&#45;source&#45;&gt;/nix/store/rfs7420034mjxhnwvlyg5cmhddn3q394&#45;nginx&#45;1.14.2</title>
<path fill="none" stroke="#deb887" d="M909.827,-74.8033C906.8775,-73.7519 903.9076,-72.7958 901,-72 781.5906,-39.3195 637.2849,-26.22 554.1256,-21.1135"/>
<polygon fill="#deb887" stroke="#deb887" points="554.2353,-17.614 544.0455,-20.5155 553.8206,-24.6017 554.2353,-17.614"/>
</g>
<!-- /nix/store/g4jmmvcz5gsgpsdjib16l3c603vdpw0v&#45;gd&#45;2.2.5&#45;&gt;/nix/store/rfs7420034mjxhnwvlyg5cmhddn3q394&#45;nginx&#45;1.14.2 -->
<g id="edge7" class="edge">
<title>/nix/store/g4jmmvcz5gsgpsdjib16l3c603vdpw0v&#45;gd&#45;2.2.5&#45;&gt;/nix/store/rfs7420034mjxhnwvlyg5cmhddn3q394&#45;nginx&#45;1.14.2</title>
<path fill="none" stroke="#000000" d="M724.3835,-79.2986C679.4226,-67.7372 607.0877,-49.1368 553.8762,-35.4539"/>
<polygon fill="#000000" stroke="#000000" points="554.7305,-32.0598 544.1739,-32.959 552.9872,-38.8392 554.7305,-32.0598"/>
</g>
<!-- /nix/store/iiymx8j7nlar3gc23lfkcscvr61fng8s&#45;zlib&#45;1.2.11&#45;&gt;/nix/store/rfs7420034mjxhnwvlyg5cmhddn3q394&#45;nginx&#45;1.14.2 -->
<g id="edge8" class="edge">
<title>/nix/store/iiymx8j7nlar3gc23lfkcscvr61fng8s&#45;zlib&#45;1.2.11&#45;&gt;/nix/store/rfs7420034mjxhnwvlyg5cmhddn3q394&#45;nginx&#45;1.14.2</title>
<path fill="none" stroke="#ff0000" d="M537.9412,-359.7668C526.7866,-332.8248 508,-280.5405 508,-234 508,-234 508,-234 508,-162 508,-121.2316 499.2765,-74.7078 492.8159,-45.8425"/>
<polygon fill="#ff0000" stroke="#ff0000" points="496.2155,-45.0083 490.5584,-36.0502 489.3944,-46.5809 496.2155,-45.0083"/>
</g>
<!-- /nix/store/iiymx8j7nlar3gc23lfkcscvr61fng8s&#45;zlib&#45;1.2.11&#45;&gt;/nix/store/g4jmmvcz5gsgpsdjib16l3c603vdpw0v&#45;gd&#45;2.2.5 -->
<g id="edge18" class="edge">
<title>/nix/store/iiymx8j7nlar3gc23lfkcscvr61fng8s&#45;zlib&#45;1.2.11&#45;&gt;/nix/store/g4jmmvcz5gsgpsdjib16l3c603vdpw0v&#45;gd&#45;2.2.5</title>
<path fill="none" stroke="#deb887" d="M543.3457,-359.8147C539.6727,-327.9784 536.3983,-261.2371 565,-216 599.593,-161.2868 667.4736,-126.2621 714.7283,-107.3737"/>
<polygon fill="#deb887" stroke="#deb887" points="716.131,-110.5836 724.1837,-103.6984 713.595,-104.0592 716.131,-110.5836"/>
</g>
<!-- /nix/store/iiymx8j7nlar3gc23lfkcscvr61fng8s&#45;zlib&#45;1.2.11&#45;&gt;/nix/store/ikpw35l9k1irmkiai8av6p0q3kbw9zqr&#45;libxslt&#45;1.1.33 -->
<g id="edge26" class="edge">
<title>/nix/store/iiymx8j7nlar3gc23lfkcscvr61fng8s&#45;zlib&#45;1.2.11&#45;&gt;/nix/store/ikpw35l9k1irmkiai8av6p0q3kbw9zqr&#45;libxslt&#45;1.1.33</title>
<path fill="none" stroke="#ff0000" d="M524.4694,-359.7623C494.1961,-334.119 438.9675,-287.3372 405.0726,-258.6262"/>
<polygon fill="#ff0000" stroke="#ff0000" points="407.2485,-255.8824 397.3558,-252.0896 402.7241,-261.2238 407.2485,-255.8824"/>
</g>
<!-- /nix/store/iiymx8j7nlar3gc23lfkcscvr61fng8s&#45;zlib&#45;1.2.11&#45;&gt;/nix/store/saymap34yysscls09lynpjx42vs8nk75&#45;libxml2&#45;2.9.9 -->
<g id="edge42" class="edge">
<title>/nix/store/iiymx8j7nlar3gc23lfkcscvr61fng8s&#45;zlib&#45;1.2.11&#45;&gt;/nix/store/saymap34yysscls09lynpjx42vs8nk75&#45;libxml2&#45;2.9.9</title>
<path fill="none" stroke="#deb887" d="M492.2924,-362.0209C457.6516,-351.7145 412.2216,-338.1982 374.6648,-327.0242"/>
<polygon fill="#deb887" stroke="#deb887" points="375.3812,-323.5858 364.7984,-324.0888 373.385,-330.2952 375.3812,-323.5858"/>
</g>
<!-- /nix/store/iiymx8j7nlar3gc23lfkcscvr61fng8s&#45;zlib&#45;1.2.11&#45;&gt;/nix/store/m0skfvwadjx49qzlrbsmsql74amz69x1&#45;libpng&#45;apng&#45;1.6.36 -->
<g id="edge29" class="edge">
<title>/nix/store/iiymx8j7nlar3gc23lfkcscvr61fng8s&#45;zlib&#45;1.2.11&#45;&gt;/nix/store/m0skfvwadjx49qzlrbsmsql74amz69x1&#45;libpng&#45;apng&#45;1.6.36</title>
<path fill="none" stroke="#ff00ff" d="M599.6631,-368.2035C655.9659,-357.8887 747.3229,-341.0496 836.2649,-324.1313"/>
<polygon fill="#ff00ff" stroke="#ff00ff" points="837.0867,-327.5377 846.2554,-322.2286 835.7771,-320.6613 837.0867,-327.5377"/>
</g>
<!-- /nix/store/iiymx8j7nlar3gc23lfkcscvr61fng8s&#45;zlib&#45;1.2.11&#45;&gt;/nix/store/rakz2jjx50gk79p1ax0vxppl9y07bl9h&#45;freetype&#45;2.9.1 -->
<g id="edge37" class="edge">
<title>/nix/store/iiymx8j7nlar3gc23lfkcscvr61fng8s&#45;zlib&#45;1.2.11&#45;&gt;/nix/store/rakz2jjx50gk79p1ax0vxppl9y07bl9h&#45;freetype&#45;2.9.1</title>
<path fill="none" stroke="#000000" d="M562.6868,-359.948C581.5074,-340.3534 613.7179,-309.0505 646,-288 664.9982,-275.6117 687.3082,-264.7107 707.5042,-256.0066"/>
<polygon fill="#000000" stroke="#000000" points="709.0628,-259.1479 716.9189,-252.0393 706.3445,-252.6972 709.0628,-259.1479"/>
</g>
<!-- /nix/store/iiymx8j7nlar3gc23lfkcscvr61fng8s&#45;zlib&#45;1.2.11&#45;&gt;/nix/store/xrkn67vbpkmmp89mg9f6rkp8rzzfsmql&#45;libtiff&#45;4.0.10 -->
<g id="edge53" class="edge">
<title>/nix/store/iiymx8j7nlar3gc23lfkcscvr61fng8s&#45;zlib&#45;1.2.11&#45;&gt;/nix/store/xrkn67vbpkmmp89mg9f6rkp8rzzfsmql&#45;libtiff&#45;4.0.10</title>
<path fill="none" stroke="#ff00ff" d="M599.7332,-374.0467C686.2737,-367.2078 861.9796,-351.377 1019.9411,-324.0731"/>
<polygon fill="#ff00ff" stroke="#ff00ff" points="1020.5906,-327.5127 1029.8386,-322.343 1019.3852,-320.6173 1020.5906,-327.5127"/>
</g>
<!-- /nix/store/ikpw35l9k1irmkiai8av6p0q3kbw9zqr&#45;libxslt&#45;1.1.33&#45;&gt;/nix/store/rfs7420034mjxhnwvlyg5cmhddn3q394&#45;nginx&#45;1.14.2 -->
<g id="edge9" class="edge">
<title>/nix/store/ikpw35l9k1irmkiai8av6p0q3kbw9zqr&#45;libxslt&#45;1.1.33&#45;&gt;/nix/store/rfs7420034mjxhnwvlyg5cmhddn3q394&#45;nginx&#45;1.14.2</title>
<path fill="none" stroke="#00ff00" d="M365.2909,-215.8362C355.7972,-197.2377 344.8829,-167.7684 355,-144 373.6961,-100.0769 416.0407,-64.0659 447.5561,-41.9538"/>
<polygon fill="#00ff00" stroke="#00ff00" points="449.8507,-44.6248 456.1292,-36.0906 445.8991,-38.8468 449.8507,-44.6248"/>
</g>
<!-- /nix/store/jsqrk045m09i136mgcfjfai8i05nq14c&#45;source -->
<g id="node11" class="node">
<title>/nix/store/jsqrk045m09i136mgcfjfai8i05nq14c&#45;source</title>
<polygon fill="#ff0000" stroke="#000000" points="1060,-108 994,-108 994,-72 1060,-72 1060,-108"/>
<text text-anchor="middle" x="1027" y="-86.3" font-family="Times-Roman" font-size="14.00" fill="#000000">source</text>
</g>
<!-- /nix/store/jsqrk045m09i136mgcfjfai8i05nq14c&#45;source&#45;&gt;/nix/store/rfs7420034mjxhnwvlyg5cmhddn3q394&#45;nginx&#45;1.14.2 -->
<g id="edge10" class="edge">
<title>/nix/store/jsqrk045m09i136mgcfjfai8i05nq14c&#45;source&#45;&gt;/nix/store/rfs7420034mjxhnwvlyg5cmhddn3q394&#45;nginx&#45;1.14.2</title>
<path fill="none" stroke="#0000ff" d="M993.8454,-74.7349C990.8918,-73.6984 987.9161,-72.7643 985,-72 905.4292,-51.1436 671.8121,-31.6792 554.649,-22.8977"/>
<polygon fill="#0000ff" stroke="#0000ff" points="554.5987,-19.3844 544.3664,-22.1321 554.0788,-26.365 554.5987,-19.3844"/>
</g>
<!-- /nix/store/saymap34yysscls09lynpjx42vs8nk75&#45;libxml2&#45;2.9.9&#45;&gt;/nix/store/rfs7420034mjxhnwvlyg5cmhddn3q394&#45;nginx&#45;1.14.2 -->
<g id="edge11" class="edge">
<title>/nix/store/saymap34yysscls09lynpjx42vs8nk75&#45;libxml2&#45;2.9.9&#45;&gt;/nix/store/rfs7420034mjxhnwvlyg5cmhddn3q394&#45;nginx&#45;1.14.2</title>
<path fill="none" stroke="#ff00ff" d="M300.6263,-287.7939C297.8616,-269.4148 295.253,-240.3447 301,-216 317.4398,-146.36 321.9539,-122.1427 373,-72 386.4148,-58.8226 403.6624,-48.3856 420.622,-40.3415"/>
<polygon fill="#ff00ff" stroke="#ff00ff" points="422.3119,-43.4189 429.9882,-36.1165 419.4335,-37.038 422.3119,-43.4189"/>
</g>
<!-- /nix/store/saymap34yysscls09lynpjx42vs8nk75&#45;libxml2&#45;2.9.9&#45;&gt;/nix/store/ikpw35l9k1irmkiai8av6p0q3kbw9zqr&#45;libxslt&#45;1.1.33 -->
<g id="edge27" class="edge">
<title>/nix/store/saymap34yysscls09lynpjx42vs8nk75&#45;libxml2&#45;2.9.9&#45;&gt;/nix/store/ikpw35l9k1irmkiai8av6p0q3kbw9zqr&#45;libxslt&#45;1.1.33</title>
<path fill="none" stroke="#00ff00" d="M322.1686,-287.8314C330.7152,-279.2848 341.0557,-268.9443 350.3802,-259.6198"/>
<polygon fill="#00ff00" stroke="#00ff00" points="352.9905,-261.9592 357.5867,-252.4133 348.0408,-257.0095 352.9905,-261.9592"/>
</g>
<!-- /nix/store/wla43lgi0v7p9gwdq1vw9njfqb1b251v&#45;geoip&#45;1.6.12&#45;&gt;/nix/store/rfs7420034mjxhnwvlyg5cmhddn3q394&#45;nginx&#45;1.14.2 -->
<g id="edge12" class="edge">
<title>/nix/store/wla43lgi0v7p9gwdq1vw9njfqb1b251v&#45;geoip&#45;1.6.12&#45;&gt;/nix/store/rfs7420034mjxhnwvlyg5cmhddn3q394&#45;nginx&#45;1.14.2</title>
<path fill="none" stroke="#deb887" d="M430.1056,-143.7623C441.1179,-118.9846 460.9016,-74.4714 473.7361,-45.5939"/>
<polygon fill="#deb887" stroke="#deb887" points="477.0971,-46.6492 477.9602,-36.0896 470.7004,-43.8062 477.0971,-46.6492"/>
</g>
<!-- /nix/store/0yackjnr620wqdsrf6hz5r8dfb8l8l7l&#45;libjpeg&#45;turbo&#45;2.0.1&#45;&gt;/nix/store/g4jmmvcz5gsgpsdjib16l3c603vdpw0v&#45;gd&#45;2.2.5 -->
<g id="edge16" class="edge">
<title>/nix/store/0yackjnr620wqdsrf6hz5r8dfb8l8l7l&#45;libjpeg&#45;turbo&#45;2.0.1&#45;&gt;/nix/store/g4jmmvcz5gsgpsdjib16l3c603vdpw0v&#45;gd&#45;2.2.5</title>
<path fill="none" stroke="#0000ff" d="M1162.4704,-359.7596C1172.9294,-340.5673 1184.8153,-310.1321 1171,-288 1150.5791,-255.2857 921.5344,-155.5788 817.2137,-111.4276"/>
<polygon fill="#0000ff" stroke="#0000ff" points="818.3921,-108.126 807.8183,-107.4588 815.6681,-114.5743 818.3921,-108.126"/>
</g>
<!-- /nix/store/0yackjnr620wqdsrf6hz5r8dfb8l8l7l&#45;libjpeg&#45;turbo&#45;2.0.1&#45;&gt;/nix/store/v7jpd3j8hxq5xfais7hscxrcbx44l67m&#45;libwebp&#45;1.0.2 -->
<g id="edge43" class="edge">
<title>/nix/store/0yackjnr620wqdsrf6hz5r8dfb8l8l7l&#45;libjpeg&#45;turbo&#45;2.0.1&#45;&gt;/nix/store/v7jpd3j8hxq5xfais7hscxrcbx44l67m&#45;libwebp&#45;1.0.2</title>
<path fill="none" stroke="#000000" d="M1170.4755,-359.7578C1180.8774,-349.6285 1193.6361,-336.5663 1204,-324 1220.7031,-303.7473 1237.4617,-279.0971 1249.3368,-260.7186"/>
<polygon fill="#000000" stroke="#000000" points="1252.3151,-262.5577 1254.7524,-252.247 1246.4173,-258.7874 1252.3151,-262.5577"/>
</g>
<!-- /nix/store/0yackjnr620wqdsrf6hz5r8dfb8l8l7l&#45;libjpeg&#45;turbo&#45;2.0.1&#45;&gt;/nix/store/xrkn67vbpkmmp89mg9f6rkp8rzzfsmql&#45;libtiff&#45;4.0.10 -->
<g id="edge50" class="edge">
<title>/nix/store/0yackjnr620wqdsrf6hz5r8dfb8l8l7l&#45;libjpeg&#45;turbo&#45;2.0.1&#45;&gt;/nix/store/xrkn67vbpkmmp89mg9f6rkp8rzzfsmql&#45;libtiff&#45;4.0.10</title>
<path fill="none" stroke="#ff0000" d="M1137.1212,-359.8314C1130.7864,-351.5386 1123.1616,-341.557 1116.2074,-332.4533"/>
<polygon fill="#ff0000" stroke="#ff0000" points="1118.9175,-330.2353 1110.0657,-324.4133 1113.3548,-334.4847 1118.9175,-330.2353"/>
</g>
<!-- /nix/store/m0skfvwadjx49qzlrbsmsql74amz69x1&#45;libpng&#45;apng&#45;1.6.36&#45;&gt;/nix/store/g4jmmvcz5gsgpsdjib16l3c603vdpw0v&#45;gd&#45;2.2.5 -->
<g id="edge19" class="edge">
<title>/nix/store/m0skfvwadjx49qzlrbsmsql74amz69x1&#45;libpng&#45;apng&#45;1.6.36&#45;&gt;/nix/store/g4jmmvcz5gsgpsdjib16l3c603vdpw0v&#45;gd&#45;2.2.5</title>
<path fill="none" stroke="#000000" d="M915.3831,-287.9555C886.5585,-249.7585 819.2787,-160.6025 785.7381,-116.1559"/>
<polygon fill="#000000" stroke="#000000" points="788.5103,-114.019 779.6928,-108.1451 782.9227,-118.2356 788.5103,-114.019"/>
</g>
<!-- /nix/store/m0skfvwadjx49qzlrbsmsql74amz69x1&#45;libpng&#45;apng&#45;1.6.36&#45;&gt;/nix/store/rakz2jjx50gk79p1ax0vxppl9y07bl9h&#45;freetype&#45;2.9.1 -->
<g id="edge38" class="edge">
<title>/nix/store/m0skfvwadjx49qzlrbsmsql74amz69x1&#45;libpng&#45;apng&#45;1.6.36&#45;&gt;/nix/store/rakz2jjx50gk79p1ax0vxppl9y07bl9h&#45;freetype&#45;2.9.1</title>
<path fill="none" stroke="#ff0000" d="M887.8682,-287.8314C866.0679,-278.2018 839.1122,-266.295 816.0996,-256.1299"/>
<polygon fill="#ff0000" stroke="#ff0000" points="817.3976,-252.877 806.836,-252.038 814.5692,-259.2802 817.3976,-252.877"/>
</g>
<!-- /nix/store/m0skfvwadjx49qzlrbsmsql74amz69x1&#45;libpng&#45;apng&#45;1.6.36&#45;&gt;/nix/store/v7jpd3j8hxq5xfais7hscxrcbx44l67m&#45;libwebp&#45;1.0.2 -->
<g id="edge46" class="edge">
<title>/nix/store/m0skfvwadjx49qzlrbsmsql74amz69x1&#45;libpng&#45;apng&#45;1.6.36&#45;&gt;/nix/store/v7jpd3j8hxq5xfais7hscxrcbx44l67m&#45;libwebp&#45;1.0.2</title>
<path fill="none" stroke="#0000ff" d="M1011.8711,-288.2946C1067.6214,-276.3836 1140.4046,-260.8334 1193.7842,-249.4289"/>
<polygon fill="#0000ff" stroke="#0000ff" points="1194.8055,-252.7898 1203.8535,-247.2776 1193.3429,-245.9443 1194.8055,-252.7898"/>
</g>
<!-- /nix/store/mhrzh65clgrapcr225k1lf1m5v8hp0bj&#45;fontconfig&#45;2.12.6&#45;lib&#45;&gt;/nix/store/g4jmmvcz5gsgpsdjib16l3c603vdpw0v&#45;gd&#45;2.2.5 -->
<g id="edge20" class="edge">
<title>/nix/store/mhrzh65clgrapcr225k1lf1m5v8hp0bj&#45;fontconfig&#45;2.12.6&#45;lib&#45;&gt;/nix/store/g4jmmvcz5gsgpsdjib16l3c603vdpw0v&#45;gd&#45;2.2.5</title>
<path fill="none" stroke="#ff0000" d="M1298.8029,-149.167C1283.8233,-147.3191 1268.5005,-145.5286 1254,-144 1063.4113,-123.9081 1009.3548,-147.9423 817.6088,-107.7931"/>
<polygon fill="#ff0000" stroke="#ff0000" points="818.2878,-104.3593 807.7787,-105.7043 816.8328,-111.2064 818.2878,-104.3593"/>
</g>
<!-- /nix/store/rakz2jjx50gk79p1ax0vxppl9y07bl9h&#45;freetype&#45;2.9.1&#45;&gt;/nix/store/g4jmmvcz5gsgpsdjib16l3c603vdpw0v&#45;gd&#45;2.2.5 -->
<g id="edge21" class="edge">
<title>/nix/store/rakz2jjx50gk79p1ax0vxppl9y07bl9h&#45;freetype&#45;2.9.1&#45;&gt;/nix/store/g4jmmvcz5gsgpsdjib16l3c603vdpw0v&#45;gd&#45;2.2.5</title>
<path fill="none" stroke="#00ff00" d="M766,-215.7623C766,-191.201 766,-147.2474 766,-118.3541"/>
<polygon fill="#00ff00" stroke="#00ff00" points="769.5001,-118.0896 766,-108.0896 762.5001,-118.0897 769.5001,-118.0896"/>
</g>
<!-- /nix/store/rakz2jjx50gk79p1ax0vxppl9y07bl9h&#45;freetype&#45;2.9.1&#45;&gt;/nix/store/mhrzh65clgrapcr225k1lf1m5v8hp0bj&#45;fontconfig&#45;2.12.6&#45;lib -->
<g id="edge34" class="edge">
<title>/nix/store/rakz2jjx50gk79p1ax0vxppl9y07bl9h&#45;freetype&#45;2.9.1&#45;&gt;/nix/store/mhrzh65clgrapcr225k1lf1m5v8hp0bj&#45;fontconfig&#45;2.12.6&#45;lib</title>
<path fill="none" stroke="#0000ff" d="M832.0201,-226.4308C940.8229,-213.9566 1158.6874,-188.9785 1288.8789,-174.0521"/>
<polygon fill="#0000ff" stroke="#0000ff" points="1289.336,-177.5227 1298.8722,-172.9064 1288.5386,-170.5683 1289.336,-177.5227"/>
</g>
<!-- /nix/store/v7jpd3j8hxq5xfais7hscxrcbx44l67m&#45;libwebp&#45;1.0.2&#45;&gt;/nix/store/g4jmmvcz5gsgpsdjib16l3c603vdpw0v&#45;gd&#45;2.2.5 -->
<g id="edge22" class="edge">
<title>/nix/store/v7jpd3j8hxq5xfais7hscxrcbx44l67m&#45;libwebp&#45;1.0.2&#45;&gt;/nix/store/g4jmmvcz5gsgpsdjib16l3c603vdpw0v&#45;gd&#45;2.2.5</title>
<path fill="none" stroke="#0000ff" d="M1256.4566,-215.819C1244.2023,-194.5342 1220.7912,-160.143 1190,-144 1045.3755,-68.1773 982.1036,-141.0196 817.4689,-107.6957"/>
<polygon fill="#0000ff" stroke="#0000ff" points="818.0176,-104.2342 807.508,-105.5759 816.5604,-111.0809 818.0176,-104.2342"/>
</g>
<!-- /nix/store/8gn2b5vvlazg608cj1y5l4igp9rckmnq&#45;dejavu&#45;fonts&#45;minimal&#45;2.37 -->
<g id="node19" class="node">
<title>/nix/store/8gn2b5vvlazg608cj1y5l4igp9rckmnq&#45;dejavu&#45;fonts&#45;minimal&#45;2.37</title>
<polygon fill="#ff0000" stroke="#000000" points="1651.5,-324 1428.5,-324 1428.5,-288 1651.5,-288 1651.5,-324"/>
<text text-anchor="middle" x="1540" y="-302.3" font-family="Times-Roman" font-size="14.00" fill="#000000">dejavu&#45;fonts&#45;minimal&#45;2.37</text>
</g>
<!-- /nix/store/8gn2b5vvlazg608cj1y5l4igp9rckmnq&#45;dejavu&#45;fonts&#45;minimal&#45;2.37&#45;&gt;/nix/store/mhrzh65clgrapcr225k1lf1m5v8hp0bj&#45;fontconfig&#45;2.12.6&#45;lib -->
<g id="edge31" class="edge">
<title>/nix/store/8gn2b5vvlazg608cj1y5l4igp9rckmnq&#45;dejavu&#45;fonts&#45;minimal&#45;2.37&#45;&gt;/nix/store/mhrzh65clgrapcr225k1lf1m5v8hp0bj&#45;fontconfig&#45;2.12.6&#45;lib</title>
<path fill="none" stroke="#000000" d="M1539.3882,-287.6538C1537.7996,-267.8017 1532.4615,-236.2745 1515,-216 1503.2202,-202.3226 1487.2935,-191.9564 1470.8688,-184.1566"/>
<polygon fill="#000000" stroke="#000000" points="1472.2751,-180.9516 1461.7159,-180.0827 1469.4286,-187.3467 1472.2751,-180.9516"/>
</g>
<!-- /nix/store/m62w7f2xqny6i0w7whgd1v3g6qfwd93r&#45;fontconfig&#45;2.12.6 -->
<g id="node20" class="node">
<title>/nix/store/m62w7f2xqny6i0w7whgd1v3g6qfwd93r&#45;fontconfig&#45;2.12.6</title>
<polygon fill="#ff0000" stroke="#000000" points="1505.5,-252 1348.5,-252 1348.5,-216 1505.5,-216 1505.5,-252"/>
<text text-anchor="middle" x="1427" y="-230.3" font-family="Times-Roman" font-size="14.00" fill="#000000">fontconfig&#45;2.12.6</text>
</g>
<!-- /nix/store/8gn2b5vvlazg608cj1y5l4igp9rckmnq&#45;dejavu&#45;fonts&#45;minimal&#45;2.37&#45;&gt;/nix/store/m62w7f2xqny6i0w7whgd1v3g6qfwd93r&#45;fontconfig&#45;2.12.6 -->
<g id="edge35" class="edge">
<title>/nix/store/8gn2b5vvlazg608cj1y5l4igp9rckmnq&#45;dejavu&#45;fonts&#45;minimal&#45;2.37&#45;&gt;/nix/store/m62w7f2xqny6i0w7whgd1v3g6qfwd93r&#45;fontconfig&#45;2.12.6</title>
<path fill="none" stroke="#ff00ff" d="M1511.4853,-287.8314C1497.1658,-278.7074 1479.6376,-267.539 1464.2662,-257.7449"/>
<polygon fill="#ff00ff" stroke="#ff00ff" points="1465.8199,-254.5847 1455.5055,-252.1628 1462.0583,-260.4882 1465.8199,-254.5847"/>
</g>
<!-- /nix/store/m62w7f2xqny6i0w7whgd1v3g6qfwd93r&#45;fontconfig&#45;2.12.6&#45;&gt;/nix/store/mhrzh65clgrapcr225k1lf1m5v8hp0bj&#45;fontconfig&#45;2.12.6&#45;lib -->
<g id="edge33" class="edge">
<title>/nix/store/m62w7f2xqny6i0w7whgd1v3g6qfwd93r&#45;fontconfig&#45;2.12.6&#45;&gt;/nix/store/mhrzh65clgrapcr225k1lf1m5v8hp0bj&#45;fontconfig&#45;2.12.6&#45;lib</title>
<path fill="none" stroke="#00ff00" d="M1418.6727,-215.8314C1415.027,-207.8771 1410.6691,-198.369 1406.6373,-189.5723"/>
<polygon fill="#00ff00" stroke="#00ff00" points="1409.7877,-188.0456 1402.4394,-180.4133 1403.4243,-190.9622 1409.7877,-188.0456"/>
</g>
<!-- /nix/store/pz7k70b5xzbccsxh2wi14k2k85fhhh3i&#45;bzip2&#45;1.0.6.0.1&#45;&gt;/nix/store/rakz2jjx50gk79p1ax0vxppl9y07bl9h&#45;freetype&#45;2.9.1 -->
<g id="edge39" class="edge">
<title>/nix/store/pz7k70b5xzbccsxh2wi14k2k85fhhh3i&#45;bzip2&#45;1.0.6.0.1&#45;&gt;/nix/store/rakz2jjx50gk79p1ax0vxppl9y07bl9h&#45;freetype&#45;2.9.1</title>
<path fill="none" stroke="#00ff00" d="M760.0187,-287.8314C760.8743,-280.131 761.8917,-270.9743 762.8426,-262.4166"/>
<polygon fill="#00ff00" stroke="#00ff00" points="766.3283,-262.7386 763.9541,-252.4133 759.3711,-261.9656 766.3283,-262.7386"/>
</g>
<!-- /nix/store/4592pfsk5l7arlzhbg1cs2b06fxfy9hv&#45;giflib&#45;5.1.4&#45;&gt;/nix/store/v7jpd3j8hxq5xfais7hscxrcbx44l67m&#45;libwebp&#45;1.0.2 -->
<g id="edge44" class="edge">
<title>/nix/store/4592pfsk5l7arlzhbg1cs2b06fxfy9hv&#45;giflib&#45;5.1.4&#45;&gt;/nix/store/v7jpd3j8hxq5xfais7hscxrcbx44l67m&#45;libwebp&#45;1.0.2</title>
<path fill="none" stroke="#ff0000" d="M1330.2986,-287.8314C1319.8079,-279.0485 1307.0545,-268.3712 1295.6806,-258.8489"/>
<polygon fill="#ff0000" stroke="#ff0000" points="1297.6089,-255.8986 1287.6945,-252.1628 1293.1153,-261.2659 1297.6089,-255.8986"/>
</g>
<!-- /nix/store/xrkn67vbpkmmp89mg9f6rkp8rzzfsmql&#45;libtiff&#45;4.0.10&#45;&gt;/nix/store/v7jpd3j8hxq5xfais7hscxrcbx44l67m&#45;libwebp&#45;1.0.2 -->
<g id="edge47" class="edge">
<title>/nix/store/xrkn67vbpkmmp89mg9f6rkp8rzzfsmql&#45;libtiff&#45;4.0.10&#45;&gt;/nix/store/v7jpd3j8hxq5xfais7hscxrcbx44l67m&#45;libwebp&#45;1.0.2</title>
<path fill="none" stroke="#ff00ff" d="M1138.8982,-287.8314C1161.7357,-278.159 1189.998,-266.1891 1214.0687,-255.9944"/>
<polygon fill="#ff00ff" stroke="#ff00ff" points="1215.5671,-259.1608 1223.4103,-252.038 1212.8371,-252.7151 1215.5671,-259.1608"/>
</g>
<!-- /nix/store/hlnxw4k6931bachvg5sv0cyaissimswb&#45;gcc&#45;7.4.0&#45;lib&#45;&gt;/nix/store/xrkn67vbpkmmp89mg9f6rkp8rzzfsmql&#45;libtiff&#45;4.0.10 -->
<g id="edge52" class="edge">
<title>/nix/store/hlnxw4k6931bachvg5sv0cyaissimswb&#45;gcc&#45;7.4.0&#45;lib&#45;&gt;/nix/store/xrkn67vbpkmmp89mg9f6rkp8rzzfsmql&#45;libtiff&#45;4.0.10</title>
<path fill="none" stroke="#0000ff" d="M906.2922,-360.2022C941.6139,-350.1103 986.0001,-337.4285 1022.9564,-326.8696"/>
<polygon fill="#0000ff" stroke="#0000ff" points="1024.0204,-330.2057 1032.6741,-324.0931 1022.0973,-323.4751 1024.0204,-330.2057"/>
</g>
<!-- /nix/store/mibh7947iwgf5yiqc7njn0igfzlxzdf1&#45;xz&#45;5.2.4&#45;&gt;/nix/store/xrkn67vbpkmmp89mg9f6rkp8rzzfsmql&#45;libtiff&#45;4.0.10 -->
<g id="edge54" class="edge">
<title>/nix/store/mibh7947iwgf5yiqc7njn0igfzlxzdf1&#45;xz&#45;5.2.4&#45;&gt;/nix/store/xrkn67vbpkmmp89mg9f6rkp8rzzfsmql&#45;libtiff&#45;4.0.10</title>
<path fill="none" stroke="#deb887" d="M998.8045,-359.8314C1015.5862,-350.5368 1036.1985,-339.1208 1054.1163,-329.1971"/>
<polygon fill="#deb887" stroke="#deb887" points="1056.1538,-332.0696 1063.206,-324.1628 1052.7623,-325.9461 1056.1538,-332.0696"/>
</g>
</g>
</svg>
